<svg xmlns="http://www.w3.org/2000/svg" xmlns:xlink="http://www.w3.org/1999/xlink" width="3000" zoomAndPan="magnify" viewBox="0 0 2250 464.999988" height="620" preserveAspectRatio="xMidYMid meet" version="1.0"><defs><g/></defs><g fill="#2da0ff" fill-opacity="1"><g transform="translate(21.179698, 414.423505)"><g><path d="M 246.171875 -311.484375 C 256.753906 -295.429688 264.046875 -279.328125 268.046875 -263.171875 C 272.054688 -247.023438 273.179688 -231.4375 271.421875 -216.40625 C 269.671875 -201.382812 265.316406 -187.453125 258.359375 -174.609375 C 251.398438 -161.773438 242.203125 -150.515625 230.765625 -140.828125 C 219.335938 -131.148438 205.953125 -123.617188 190.609375 -118.234375 C 175.273438 -112.847656 158.351562 -110.132812 139.84375 -110.09375 C 141.976562 -98.25 143.5 -86.847656 144.40625 -75.890625 C 145.320312 -64.929688 145.21875 -54.863281 144.09375 -45.6875 C 142.976562 -36.507812 140.273438 -28.503906 135.984375 -21.671875 C 131.703125 -14.847656 125.421875 -9.519531 117.140625 -5.6875 C 108.867188 -1.851562 98.078125 0.0703125 84.765625 0.09375 C 71.609375 0.113281 60.722656 -2.625 52.109375 -8.125 C 43.492188 -13.632812 36.617188 -21.253906 31.484375 -30.984375 C 26.359375 -40.722656 22.5625 -51.921875 20.09375 -64.578125 C 17.632812 -77.242188 16.023438 -90.84375 15.265625 -105.375 C 14.515625 -119.90625 14.207031 -134.640625 14.34375 -149.578125 L 14.15625 -247.984375 C 14.132812 -259.671875 14.679688 -271.484375 15.796875 -283.421875 C 16.921875 -295.359375 18.890625 -306.484375 21.703125 -316.796875 C 24.523438 -327.109375 28.445312 -335.757812 33.46875 -342.75 C 38.5 -349.75 44.910156 -354.226562 52.703125 -356.1875 C 98.796875 -367.96875 138.125 -370.148438 170.6875 -362.734375 C 203.257812 -355.328125 228.421875 -338.242188 246.171875 -311.484375 Z M 129.8125 -278.140625 C 128.84375 -269.859375 128.203125 -262.753906 127.890625 -256.828125 C 127.578125 -250.898438 127.503906 -245.257812 127.671875 -239.90625 C 127.847656 -234.550781 128.1875 -228.503906 128.6875 -221.765625 C 129.1875 -215.023438 129.769531 -206.617188 130.4375 -196.546875 C 140.488281 -205.660156 148.382812 -214.8125 154.125 -224 C 159.875 -233.1875 163.023438 -241.675781 163.578125 -249.46875 C 164.140625 -257.257812 161.695312 -263.75 156.25 -268.9375 C 150.800781 -274.125 141.988281 -277.191406 129.8125 -278.140625 Z M 129.8125 -278.140625 "/></g></g></g><g fill="#2da0ff" fill-opacity="1"><g transform="translate(306.007316, 413.905607)"><g><path d="M 152.1875 -158.109375 C 151.550781 -149.335938 150.910156 -142.3125 150.265625 -137.03125 C 149.628906 -131.75 149.394531 -127.644531 149.5625 -124.71875 C 149.726562 -121.800781 150.503906 -119.453125 151.890625 -117.671875 C 153.273438 -115.890625 155.59375 -114.023438 158.84375 -112.078125 C 167.445312 -114.535156 175.523438 -115.117188 183.078125 -113.828125 C 190.628906 -112.546875 196.882812 -109.675781 201.84375 -105.21875 C 206.8125 -100.757812 209.707031 -94.796875 210.53125 -87.328125 C 211.507812 -78.242188 210.34375 -69.429688 207.03125 -60.890625 C 203.71875 -52.359375 198.738281 -44.429688 192.09375 -37.109375 C 185.457031 -29.796875 177.675781 -23.367188 168.75 -17.828125 C 159.832031 -12.296875 150.34375 -7.976562 140.28125 -4.875 C 130.21875 -1.78125 120.070312 -0.222656 109.84375 -0.203125 C 93.445312 -0.171875 79.519531 -3.1875 68.0625 -9.25 C 56.601562 -15.320312 47.207031 -23.867188 39.875 -34.890625 C 32.550781 -45.921875 26.925781 -58.898438 23 -73.828125 C 19.082031 -88.765625 16.539062 -105.125 15.375 -122.90625 C 14.207031 -140.6875 14.050781 -159.441406 14.90625 -179.171875 C 15.757812 -198.898438 17.265625 -218.992188 19.421875 -239.453125 C 21.578125 -259.921875 24.015625 -280.222656 26.734375 -300.359375 C 30.898438 -329.273438 39.148438 -347.96875 51.484375 -356.4375 L 128.4375 -364.375 C 135.082031 -365.84375 141.53125 -366.90625 147.78125 -367.5625 C 154.03125 -368.226562 160.160156 -368.566406 166.171875 -368.578125 C 178.191406 -368.597656 187.976562 -366.707031 195.53125 -362.90625 C 203.09375 -359.101562 208.378906 -354.195312 211.390625 -348.1875 C 214.410156 -342.1875 215.273438 -335.816406 213.984375 -329.078125 C 212.703125 -322.347656 209.304688 -315.972656 203.796875 -309.953125 C 198.285156 -303.929688 190.660156 -299 180.921875 -295.15625 C 171.179688 -291.320312 159.410156 -289.394531 145.609375 -289.375 C 144.648438 -278.175781 143.691406 -269.285156 142.734375 -262.703125 C 141.773438 -256.117188 141.175781 -251.160156 140.9375 -247.828125 C 140.707031 -244.503906 141.28125 -242.15625 142.65625 -240.78125 C 144.039062 -239.40625 146.597656 -238.316406 150.328125 -237.515625 C 158.921875 -244.503906 170.117188 -248.007812 183.921875 -248.03125 C 191.234375 -248.050781 198.054688 -246.601562 204.390625 -243.6875 C 210.734375 -240.78125 215.773438 -236.648438 219.515625 -231.296875 C 223.265625 -225.941406 224.898438 -219.613281 224.421875 -212.3125 C 224.453125 -198.664062 221.425781 -187.898438 215.34375 -180.015625 C 209.269531 -172.128906 200.835938 -166.507812 190.046875 -163.15625 C 179.265625 -159.8125 166.644531 -158.128906 152.1875 -158.109375 Z M 152.1875 -158.109375 "/></g></g></g><g fill="#2da0ff" fill-opacity="1"><g transform="translate(543.09572, 413.474512)"><g><path d="M 287.359375 -167.84375 C 287.378906 -151.28125 286.875 -134.921875 285.84375 -118.765625 C 284.820312 -102.609375 282.984375 -87.460938 280.328125 -73.328125 C 277.679688 -59.203125 273.929688 -46.734375 269.078125 -35.921875 C 264.222656 -25.109375 257.945312 -16.613281 250.25 -10.4375 C 242.550781 -4.257812 233.179688 -1.160156 222.140625 -1.140625 C 210.929688 -1.117188 201.140625 -3.78125 192.765625 -9.125 C 184.390625 -14.46875 177.023438 -21.878906 170.671875 -31.359375 C 164.328125 -40.847656 158.503906 -52 153.203125 -64.8125 C 147.898438 -77.632812 142.71875 -91.550781 137.65625 -106.5625 C 132.601562 -121.570312 127.21875 -137.191406 121.5 -153.421875 C 124.125 -142.710938 126.132812 -131.3125 127.53125 -119.21875 C 128.9375 -107.125 129.648438 -95.023438 129.671875 -82.921875 C 129.691406 -70.828125 128.734375 -59.414062 126.796875 -48.6875 C 124.867188 -37.96875 121.800781 -28.585938 117.59375 -20.546875 C 113.394531 -12.503906 107.847656 -6.40625 100.953125 -2.25 C 94.054688 1.894531 85.65625 3.410156 75.75 2.296875 C 62.269531 1.023438 51.460938 -3.378906 43.328125 -10.921875 C 35.191406 -18.460938 29.039062 -28.394531 24.875 -40.71875 C 20.71875 -53.050781 17.9375 -67.050781 16.53125 -82.71875 C 15.125 -98.394531 14.40625 -115 14.375 -132.53125 C 14.226562 -210.3125 17.296875 -262.601562 23.578125 -289.40625 C 26.328125 -300.125 30.976562 -310.078125 37.53125 -319.265625 C 44.09375 -328.453125 51.992188 -335.851562 61.234375 -341.46875 C 70.484375 -347.09375 80.46875 -349.914062 91.1875 -349.9375 C 99.789062 -349.945312 107.75 -347.5625 115.0625 -342.78125 C 122.382812 -338.007812 129.054688 -331.445312 135.078125 -323.09375 C 141.097656 -314.75 146.59375 -305.300781 151.5625 -294.75 C 156.539062 -284.207031 161.03125 -273.09375 165.03125 -261.40625 C 169.03125 -249.71875 172.625 -238.070312 175.8125 -226.46875 C 179 -214.863281 181.734375 -204.03125 184.015625 -193.96875 C 180.398438 -218.644531 177.234375 -240.640625 174.515625 -259.953125 C 171.804688 -279.273438 170.441406 -294.863281 170.421875 -306.71875 C 170.410156 -317.269531 172.425781 -326.648438 176.46875 -334.859375 C 180.507812 -343.066406 186.34375 -349.488281 193.96875 -354.125 C 201.59375 -358.769531 210.765625 -361.101562 221.484375 -361.125 C 251.359375 -361.175781 269.976562 -344.644531 277.34375 -311.53125 C 278.488281 -306.175781 279.554688 -298.953125 280.546875 -289.859375 C 281.535156 -280.773438 282.445312 -270.753906 283.28125 -259.796875 C 284.113281 -248.835938 284.820312 -237.671875 285.40625 -226.296875 C 286 -214.929688 286.46875 -204.132812 286.8125 -193.90625 C 287.15625 -183.675781 287.335938 -174.988281 287.359375 -167.84375 Z M 287.359375 -167.84375 "/></g></g></g><g fill="#2da0ff" fill-opacity="1"><g transform="translate(843.024512, 412.929155)"><g><path d="M 251.125 -130.765625 C 251.15625 -112.734375 248.382812 -95.835938 242.8125 -80.078125 C 237.238281 -64.316406 229.265625 -50.460938 218.890625 -38.515625 C 208.523438 -26.566406 196.160156 -17.207031 181.796875 -10.4375 C 167.441406 -3.675781 151.414062 -0.28125 133.71875 -0.25 C 112.769531 -0.207031 94.773438 -4.472656 79.734375 -13.046875 C 64.703125 -21.628906 52.382812 -33.539062 42.78125 -48.78125 C 33.175781 -64.03125 26.039062 -81.597656 21.375 -101.484375 C 16.707031 -121.367188 14.351562 -142.515625 14.3125 -164.921875 C 14.28125 -183.429688 15.789062 -202.144531 18.84375 -221.0625 C 21.894531 -239.988281 26.53125 -258.1875 32.75 -275.65625 C 38.96875 -293.125 46.894531 -308.890625 56.53125 -322.953125 C 66.164062 -337.015625 77.472656 -348.363281 90.453125 -357 C 106.347656 -365.300781 124.28125 -369.472656 144.25 -369.515625 C 156.269531 -369.535156 167.882812 -367.566406 179.09375 -363.609375 C 190.300781 -359.648438 200.703125 -354.226562 210.296875 -347.34375 C 219.890625 -340.457031 228.144531 -332.4375 235.0625 -323.28125 C 241.976562 -314.125 247.148438 -304.3125 250.578125 -293.84375 C 254.015625 -283.375 255.175781 -272.65625 254.0625 -261.6875 C 252.945312 -250.71875 249.144531 -239.953125 242.65625 -229.390625 C 238.445312 -223.378906 233.222656 -218.660156 226.984375 -215.234375 C 220.742188 -211.816406 214.171875 -209.65625 207.265625 -208.75 C 200.367188 -207.84375 193.585938 -208.234375 186.921875 -209.921875 C 180.253906 -211.617188 174.320312 -214.613281 169.125 -218.90625 C 163.925781 -223.207031 160.019531 -228.757812 157.40625 -235.5625 L 157.375 -248.484375 L 150.0625 -257.71875 C 130.5 -208.15625 120.75 -166.40625 120.8125 -132.46875 C 120.820312 -125.164062 121.96875 -119.203125 124.25 -114.578125 C 126.539062 -109.953125 129.390625 -106.953125 132.796875 -105.578125 C 136.210938 -104.203125 139.785156 -104.613281 143.515625 -106.8125 C 147.242188 -109.007812 150.5625 -113.117188 153.46875 -119.140625 C 154.601562 -122.222656 154.679688 -124.535156 153.703125 -126.078125 C 152.722656 -127.617188 151.21875 -128.789062 149.1875 -129.59375 C 147.164062 -130.40625 144.976562 -131.175781 142.625 -131.90625 C 140.269531 -132.632812 138.234375 -133.6875 136.515625 -135.0625 C 134.804688 -136.445312 133.789062 -138.4375 133.46875 -141.03125 C 132.800781 -150.28125 133.921875 -157.300781 136.828125 -162.09375 C 139.742188 -166.882812 144.488281 -170.34375 151.0625 -172.46875 C 157.632812 -174.601562 165.953125 -176.082031 176.015625 -176.90625 C 188.835938 -177.90625 199.957031 -178.207031 209.375 -177.8125 C 218.800781 -177.425781 226.601562 -175.695312 232.78125 -172.625 C 238.957031 -169.550781 243.550781 -164.6875 246.5625 -158.03125 C 249.582031 -151.382812 251.101562 -142.296875 251.125 -130.765625 Z M 251.125 -130.765625 "/></g></g></g><g fill="#2da0ff" fill-opacity="1"><g transform="translate(1110.071695, 412.443586)"><g><path d="M 157.34375 -0.28125 C 135.90625 -0.25 116.332031 -3.503906 98.625 -10.046875 C 80.914062 -16.585938 65.796875 -26.34375 53.265625 -39.3125 C 40.742188 -52.28125 31.300781 -68.5 24.9375 -87.96875 C 21.5 -98.675781 18.914062 -111.335938 17.1875 -125.953125 C 15.457031 -140.566406 14.535156 -156.195312 14.421875 -172.84375 C 14.304688 -189.488281 14.882812 -206.296875 16.15625 -223.265625 C 17.425781 -240.234375 19.265625 -256.429688 21.671875 -271.859375 C 24.078125 -287.285156 27.054688 -300.929688 30.609375 -312.796875 C 32.867188 -320.597656 36.953125 -327.789062 42.859375 -334.375 C 48.773438 -340.957031 55.585938 -346.40625 63.296875 -350.71875 C 71.003906 -355.039062 78.585938 -357.613281 86.046875 -358.4375 C 96.609375 -359.4375 105.789062 -357.710938 113.59375 -353.265625 C 121.394531 -348.816406 127.453125 -342.367188 131.765625 -333.921875 C 136.085938 -325.484375 138.257812 -315.582031 138.28125 -304.21875 C 138.289062 -299.1875 137.734375 -292.285156 136.609375 -283.515625 C 135.492188 -274.742188 134.128906 -265.117188 132.515625 -254.640625 C 130.910156 -244.171875 129.304688 -233.738281 127.703125 -223.34375 C 126.109375 -212.945312 124.75 -203.484375 123.625 -194.953125 C 122.5 -186.421875 121.941406 -179.800781 121.953125 -175.09375 C 121.972656 -163.894531 123.570312 -154.925781 126.75 -148.1875 C 129.925781 -141.457031 133.953125 -136.960938 138.828125 -134.703125 C 143.710938 -132.441406 148.664062 -132.367188 153.6875 -134.484375 C 158.71875 -136.609375 163.253906 -140.878906 167.296875 -147.296875 C 171.347656 -153.710938 174.015625 -162.28125 175.296875 -173 C 175.109375 -190.695312 175.117188 -208.03125 175.328125 -225 C 175.535156 -241.96875 176.316406 -258.046875 177.671875 -273.234375 C 179.023438 -288.421875 181.066406 -302.1875 183.796875 -314.53125 C 186.703125 -327.207031 191.066406 -337.691406 196.890625 -345.984375 C 202.722656 -354.273438 209.367188 -360.457031 216.828125 -364.53125 C 224.296875 -368.601562 232.007812 -370.523438 239.96875 -370.296875 C 247.925781 -370.066406 255.484375 -367.804688 262.640625 -363.515625 C 269.796875 -359.222656 276.019531 -352.859375 281.3125 -344.421875 C 286.601562 -335.992188 290.234375 -325.53125 292.203125 -313.03125 C 295.984375 -289.5 297.8125 -265.507812 297.6875 -241.0625 C 297.570312 -216.625 295.546875 -192.75 291.609375 -169.4375 C 287.671875 -146.132812 281.90625 -124.285156 274.3125 -103.890625 C 266.71875 -83.503906 257.289062 -65.546875 246.03125 -50.015625 C 234.78125 -34.492188 221.773438 -22.332031 207.015625 -13.53125 C 192.253906 -4.726562 175.695312 -0.3125 157.34375 -0.28125 Z M 157.34375 -0.28125 "/></g></g></g><g fill="#2da0ff" fill-opacity="1"><g transform="translate(1420.473884, 411.879185)"><g><path d="M 345.046875 -55.921875 C 345.054688 -45.203125 342.832031 -35.695312 338.375 -27.40625 C 333.925781 -19.125 328.050781 -12.332031 320.75 -7.03125 C 313.457031 -1.738281 305.550781 1.640625 297.03125 3.109375 C 288.519531 4.585938 280.117188 3.832031 271.828125 0.84375 C 263.546875 -2.144531 256.304688 -7.609375 250.109375 -15.546875 C 243.765625 -23.660156 239.691406 -31.9375 237.890625 -40.375 C 236.085938 -48.8125 235.625 -57.457031 236.5 -66.3125 C 237.382812 -75.164062 238.671875 -84.179688 240.359375 -93.359375 C 242.046875 -102.535156 243.242188 -111.992188 243.953125 -121.734375 C 244.660156 -131.484375 243.867188 -141.390625 241.578125 -151.453125 C 237.222656 -137.316406 232.945312 -124.113281 228.75 -111.84375 C 224.550781 -99.582031 220.222656 -88.816406 215.765625 -79.546875 C 211.316406 -70.285156 206.421875 -63.050781 201.078125 -57.84375 C 195.734375 -52.632812 189.648438 -50.023438 182.828125 -50.015625 C 176.984375 -50.003906 171.660156 -52.226562 166.859375 -56.6875 C 162.066406 -61.144531 157.671875 -67.0625 153.671875 -74.4375 C 149.679688 -81.820312 146.132812 -90.140625 143.03125 -99.390625 C 139.9375 -108.640625 137.203125 -118.050781 134.828125 -127.625 C 132.460938 -137.195312 130.457031 -146.289062 128.8125 -154.90625 C 126.082031 -140.613281 124.765625 -126.890625 124.859375 -113.734375 C 124.960938 -100.585938 125.550781 -88.25 126.625 -76.71875 C 127.707031 -65.1875 128.296875 -54.789062 128.390625 -45.53125 C 128.492188 -36.28125 127.289062 -28.28125 124.78125 -21.53125 C 122.28125 -14.789062 117.539062 -9.628906 110.5625 -6.046875 C 103.59375 -2.460938 93.367188 -0.65625 79.890625 -0.625 C 67.390625 -0.601562 56.992188 -3.75 48.703125 -10.0625 C 40.410156 -16.382812 33.816406 -25.347656 28.921875 -36.953125 C 24.023438 -48.554688 20.460938 -62.3125 18.234375 -78.21875 C 16.015625 -94.132812 14.765625 -111.671875 14.484375 -130.828125 C 14.210938 -149.984375 14.625 -170.398438 15.71875 -192.078125 C 16.820312 -213.753906 18.082031 -236.039062 19.5 -258.9375 C 20.925781 -280.707031 27.222656 -299.15625 38.390625 -314.28125 C 48.109375 -327.601562 58.929688 -337.078125 70.859375 -342.703125 C 82.785156 -348.328125 94.921875 -349.691406 107.265625 -346.796875 C 119.609375 -343.898438 131.3125 -336.207031 142.375 -323.71875 C 158 -306.207031 171.207031 -279.4375 182 -243.40625 C 183.75 -259.65625 186.84375 -274.84375 191.28125 -288.96875 C 195.71875 -303.101562 201.617188 -315.578125 208.984375 -326.390625 C 216.359375 -337.210938 225.316406 -345.675781 235.859375 -351.78125 C 246.410156 -357.882812 258.664062 -360.953125 272.625 -360.984375 C 285.457031 -361.003906 296.179688 -358.140625 304.796875 -352.390625 C 313.410156 -346.640625 320.328125 -338.691406 325.546875 -328.546875 C 330.765625 -318.410156 334.597656 -306.609375 337.046875 -293.140625 C 339.503906 -279.671875 341.078125 -265.222656 341.765625 -249.796875 C 341.941406 -241.347656 342.117188 -230.875 342.296875 -218.375 C 342.484375 -205.875 342.753906 -192.316406 343.109375 -177.703125 C 343.460938 -163.085938 343.769531 -148.3125 344.03125 -133.375 C 344.300781 -118.4375 344.53125 -104.265625 344.71875 -90.859375 C 344.914062 -77.460938 345.023438 -65.816406 345.046875 -55.921875 Z M 345.046875 -55.921875 "/></g></g></g><g fill="#2da0ff" fill-opacity="1"><g transform="translate(1777.884651, 411.22931)"><g><path d="M 92.5625 1.53125 C 75.03125 3.507812 60.039062 -1.976562 47.59375 -14.9375 C 35.144531 -27.90625 26.054688 -47.859375 20.328125 -74.796875 C 14.597656 -101.742188 12.992188 -135.351562 15.515625 -175.625 C 18.046875 -215.90625 25.425781 -262.363281 37.65625 -315 C 39.113281 -322.3125 42.070312 -328.242188 46.53125 -332.796875 C 50.988281 -337.347656 56.421875 -340.847656 62.828125 -343.296875 C 69.234375 -345.742188 76.171875 -347.421875 83.640625 -348.328125 C 91.109375 -349.234375 98.492188 -349.691406 105.796875 -349.703125 C 116.347656 -349.722656 124.269531 -347.910156 129.5625 -344.265625 C 134.851562 -340.628906 138.554688 -334.914062 140.671875 -327.125 C 142.796875 -319.332031 144.070312 -309.265625 144.5 -296.921875 C 144.9375 -284.585938 145.492188 -269.648438 146.171875 -252.109375 C 146.691406 -234.085938 147.046875 -215.660156 147.234375 -196.828125 C 147.429688 -177.992188 147.179688 -159.5625 146.484375 -141.53125 C 145.796875 -123.507812 144.367188 -106.457031 142.203125 -90.375 C 140.035156 -74.289062 136.9375 -59.789062 132.90625 -46.875 C 128.875 -33.96875 123.578125 -23.320312 117.015625 -14.9375 C 110.453125 -6.5625 102.300781 -1.070312 92.5625 1.53125 Z M 92.5625 1.53125 "/></g></g></g><g fill="#2da0ff" fill-opacity="1"><g transform="translate(1937.762165, 410.938606)"><g><path d="M 269.765625 -61.625 C 266.210938 -49.925781 260.179688 -39.804688 251.671875 -31.265625 C 243.160156 -22.734375 232.820312 -15.773438 220.65625 -10.390625 C 208.488281 -5.015625 195.140625 -1.175781 180.609375 1.125 C 166.085938 3.4375 151.066406 4.320312 135.546875 3.78125 C 120.035156 3.238281 104.6875 1.234375 89.5 -2.234375 C 74.3125 -5.703125 59.894531 -10.503906 46.25 -16.640625 C 35.519531 -21.335938 27.628906 -27.941406 22.578125 -36.453125 C 17.523438 -44.972656 14.867188 -54.753906 14.609375 -65.796875 C 14.347656 -76.835938 16.070312 -88.648438 19.78125 -101.234375 C 23.5 -113.828125 28.796875 -126.664062 35.671875 -139.75 C 42.546875 -152.832031 50.679688 -165.632812 60.078125 -178.15625 C 62.835938 -181.738281 66.929688 -186.085938 72.359375 -191.203125 C 77.785156 -196.328125 83.78125 -201.78125 90.34375 -207.5625 C 96.914062 -213.34375 103.160156 -219.078125 109.078125 -224.765625 C 114.992188 -230.460938 119.8125 -235.585938 123.53125 -240.140625 C 127.257812 -244.691406 129.078125 -248.347656 128.984375 -251.109375 C 128.898438 -253.867188 126.019531 -255.242188 120.34375 -255.234375 C 106.875 -252.941406 94.578125 -251.5 83.453125 -250.90625 C 72.328125 -250.320312 62.703125 -251.316406 54.578125 -253.890625 C 46.460938 -256.472656 40.207031 -261.332031 35.8125 -268.46875 C 31.414062 -275.601562 29.203125 -285.75 29.171875 -298.90625 C 29.140625 -315.957031 32.363281 -329.398438 38.84375 -339.234375 C 45.320312 -349.078125 54.722656 -356.320312 67.046875 -360.96875 C 79.378906 -365.613281 94.3125 -368.601562 111.84375 -369.9375 C 129.382812 -371.269531 149.195312 -371.957031 171.28125 -372 C 194.832031 -372.039062 214.363281 -370.285156 229.875 -366.734375 C 245.382812 -363.191406 257.003906 -356.878906 264.734375 -347.796875 C 272.460938 -338.722656 276.34375 -325.820312 276.375 -309.09375 C 276.476562 -252.269531 236.484375 -189.519531 156.390625 -120.84375 L 161.53125 -111.359375 C 174.675781 -113.816406 187.335938 -115.539062 199.515625 -116.53125 C 211.691406 -117.53125 222.816406 -117.390625 232.890625 -116.109375 C 242.960938 -114.835938 251.367188 -112.132812 258.109375 -108 C 264.847656 -103.875 269.363281 -98.035156 271.65625 -90.484375 C 273.945312 -82.941406 273.316406 -73.320312 269.765625 -61.625 Z M 269.765625 -61.625 "/></g></g></g></svg>