<svg xmlns="http://www.w3.org/2000/svg" xmlns:xlink="http://www.w3.org/1999/xlink" width="500" zoomAndPan="magnify" viewBox="0 0 375 374.999991" height="500" preserveAspectRatio="xMidYMid meet" version="1.0"><defs><clipPath id="b4bc63029b"><path d="M 2.378906 2.378906 L 375 2.378906 L 375 375 L 2.378906 375 Z M 2.378906 2.378906 " clip-rule="nonzero"/></clipPath></defs><g clip-path="url(#b4bc63029b)"><path fill="#004aad" d="M 373.464844 219.503906 C 374.230469 194.375 374.230469 194.328125 375 169.210938 L 336.089844 154.035156 C 330.476562 139.21875 327.671875 131.78125 322.058594 116.960938 L 341.132812 79.792969 C 323.898438 61.539062 323.851562 61.492188 306.621094 43.183594 L 268.414062 59.949219 L 232.320312 43.652344 L 219.503906 3.910156 L 169.257812 2.378906 L 154.035156 41.285156 C 139.265625 46.898438 131.78125 49.707031 117.015625 55.320312 L 79.847656 36.261719 C 61.539062 53.4375 61.492188 53.496094 43.183594 70.71875 L 59.949219 108.960938 C 53.496094 123.371094 50.210938 130.65625 43.699219 145.054688 L 3.910156 157.882812 C 3.144531 183 3.144531 183.046875 2.378906 208.117188 L 41.285156 223.347656 C 46.898438 238.113281 49.707031 245.597656 55.320312 260.414062 L 36.261719 297.535156 C 53.496094 315.835938 53.542969 315.890625 70.71875 334.191406 L 108.960938 317.425781 C 123.425781 323.890625 130.703125 327.164062 145.109375 333.675781 L 157.882812 373.464844 L 208.195312 375 L 223.367188 336.089844 C 238.1875 330.476562 245.613281 327.671875 260.433594 322.058594 L 297.601562 341.132812 L 334.210938 306.675781 L 317.445312 268.433594 C 323.992188 254.027344 327.238281 246.691406 333.75 232.285156 Z M 188.6875 298.003906 C 186.898438 298.003906 185.113281 297.960938 183.324219 297.871094 C 181.539062 297.785156 179.753906 297.652344 177.972656 297.476562 C 176.195312 297.300781 174.417969 297.082031 172.648438 296.820312 C 170.878906 296.558594 169.117188 296.25 167.363281 295.902344 C 165.609375 295.554688 163.863281 295.160156 162.128906 294.726562 C 160.394531 294.292969 158.671875 293.816406 156.960938 293.296875 C 155.246094 292.777344 153.550781 292.214844 151.867188 291.613281 C 150.179688 291.007812 148.511719 290.367188 146.859375 289.679688 C 145.207031 288.996094 143.574219 288.273438 141.957031 287.507812 C 140.339844 286.742188 138.742188 285.9375 137.164062 285.09375 C 135.585938 284.25 134.03125 283.371094 132.496094 282.449219 C 130.960938 281.53125 129.449219 280.574219 127.964844 279.578125 C 126.476562 278.585938 125.015625 277.554688 123.578125 276.488281 C 122.140625 275.425781 120.730469 274.324219 119.347656 273.1875 C 117.964844 272.054688 116.613281 270.886719 115.285156 269.683594 C 113.960938 268.484375 112.667969 267.25 111.402344 265.984375 C 110.136719 264.71875 108.902344 263.425781 107.703125 262.097656 C 106.5 260.773438 105.332031 259.417969 104.199219 258.035156 C 103.0625 256.652344 101.964844 255.242188 100.898438 253.808594 C 99.832031 252.371094 98.800781 250.90625 97.808594 249.421875 C 96.816406 247.933594 95.859375 246.421875 94.9375 244.886719 C 94.019531 243.355469 93.136719 241.796875 92.292969 240.21875 C 91.453125 238.640625 90.648438 237.046875 89.882812 235.429688 C 89.117188 233.8125 88.394531 232.175781 87.710938 230.523438 C 87.023438 228.871094 86.382812 227.203125 85.777344 225.519531 C 85.175781 223.832031 84.613281 222.136719 84.097656 220.421875 C 83.578125 218.710938 83.101562 216.988281 82.664062 215.253906 C 82.230469 213.519531 81.839844 211.773438 81.488281 210.019531 C 81.140625 208.265625 80.835938 206.503906 80.574219 204.734375 C 80.308594 202.964844 80.089844 201.1875 79.917969 199.40625 C 79.742188 197.628906 79.609375 195.84375 79.523438 194.058594 C 79.433594 192.269531 79.390625 190.484375 79.390625 188.695312 C 79.390625 186.90625 79.433594 185.117188 79.523438 183.332031 C 79.609375 181.542969 79.742188 179.761719 79.917969 177.980469 C 80.09375 176.199219 80.3125 174.425781 80.574219 172.65625 C 80.835938 170.886719 81.140625 169.125 81.492188 167.371094 C 81.839844 165.617188 82.230469 163.871094 82.667969 162.136719 C 83.101562 160.402344 83.578125 158.675781 84.097656 156.964844 C 84.617188 155.253906 85.179688 153.554688 85.78125 151.871094 C 86.382812 150.1875 87.027344 148.519531 87.710938 146.867188 C 88.394531 145.214844 89.121094 143.578125 89.886719 141.960938 C 90.652344 140.34375 91.453125 138.746094 92.296875 137.167969 C 93.140625 135.59375 94.023438 134.035156 94.941406 132.5 C 95.863281 130.96875 96.820312 129.457031 97.8125 127.96875 C 98.804688 126.480469 99.835938 125.019531 100.902344 123.582031 C 101.96875 122.144531 103.066406 120.734375 104.203125 119.351562 C 105.335938 117.96875 106.503906 116.617188 107.707031 115.292969 C 108.90625 113.964844 110.140625 112.671875 111.40625 111.40625 C 112.671875 110.140625 113.964844 108.90625 115.292969 107.707031 C 116.617188 106.503906 117.96875 105.335938 119.351562 104.203125 C 120.734375 103.066406 122.144531 101.96875 123.582031 100.902344 C 125.019531 99.835938 126.480469 98.804688 127.96875 97.8125 C 129.457031 96.820312 130.96875 95.863281 132.5 94.941406 C 134.035156 94.023438 135.59375 93.140625 137.167969 92.296875 C 138.746094 91.453125 140.34375 90.652344 141.960938 89.886719 C 143.578125 89.121094 145.214844 88.394531 146.867188 87.710938 C 148.519531 87.027344 150.1875 86.382812 151.871094 85.78125 C 153.554688 85.179688 155.253906 84.617188 156.964844 84.097656 C 158.675781 83.578125 160.402344 83.101562 162.136719 82.667969 C 163.871094 82.230469 165.617188 81.839844 167.371094 81.492188 C 169.125 81.140625 170.886719 80.835938 172.65625 80.574219 C 174.425781 80.3125 176.199219 80.09375 177.980469 79.917969 C 179.761719 79.742188 181.542969 79.609375 183.332031 79.523438 C 185.117188 79.433594 186.90625 79.390625 188.695312 79.390625 C 190.484375 79.390625 192.269531 79.433594 194.058594 79.523438 C 195.84375 79.609375 197.628906 79.742188 199.40625 79.917969 C 201.1875 80.089844 202.964844 80.308594 204.734375 80.574219 C 206.503906 80.835938 208.265625 81.140625 210.019531 81.488281 C 211.773438 81.839844 213.519531 82.230469 215.253906 82.664062 C 216.988281 83.101562 218.710938 83.578125 220.421875 84.097656 C 222.136719 84.613281 223.832031 85.175781 225.519531 85.777344 C 227.203125 86.382812 228.871094 87.023438 230.523438 87.710938 C 232.175781 88.394531 233.8125 89.117188 235.429688 89.882812 C 237.046875 90.648438 238.640625 91.453125 240.21875 92.292969 C 241.796875 93.136719 243.355469 94.019531 244.886719 94.9375 C 246.421875 95.859375 247.933594 96.816406 249.421875 97.808594 C 250.90625 98.800781 252.371094 99.832031 253.808594 100.898438 C 255.242188 101.964844 256.652344 103.0625 258.035156 104.199219 C 259.417969 105.332031 260.773438 106.5 262.097656 107.703125 C 263.425781 108.902344 264.71875 110.136719 265.984375 111.402344 C 267.25 112.667969 268.484375 113.960938 269.683594 115.285156 C 270.886719 116.613281 272.054688 117.964844 273.1875 119.347656 C 274.324219 120.730469 275.425781 122.140625 276.488281 123.578125 C 277.554688 125.015625 278.585938 126.476562 279.578125 127.964844 C 280.574219 129.449219 281.53125 130.960938 282.449219 132.496094 C 283.371094 134.03125 284.25 135.585938 285.09375 137.164062 C 285.9375 138.742188 286.742188 140.339844 287.507812 141.957031 C 288.273438 143.574219 288.996094 145.207031 289.679688 146.859375 C 290.367188 148.511719 291.007812 150.179688 291.613281 151.867188 C 292.214844 153.550781 292.777344 155.246094 293.296875 156.960938 C 293.816406 158.671875 294.292969 160.394531 294.726562 162.128906 C 295.160156 163.863281 295.554688 165.609375 295.902344 167.363281 C 296.25 169.117188 296.558594 170.878906 296.820312 172.648438 C 297.082031 174.417969 297.300781 176.195312 297.476562 177.972656 C 297.652344 179.753906 297.785156 181.539062 297.871094 183.324219 C 297.960938 185.113281 298.003906 186.898438 298.003906 188.6875 C 298.003906 190.476562 297.960938 192.265625 297.871094 194.050781 C 297.785156 195.839844 297.652344 197.621094 297.476562 199.402344 C 297.300781 201.183594 297.082031 202.957031 296.816406 204.726562 C 296.554688 206.496094 296.25 208.257812 295.898438 210.011719 C 295.550781 211.765625 295.15625 213.511719 294.722656 215.246094 C 294.289062 216.984375 293.8125 218.707031 293.292969 220.417969 C 292.773438 222.128906 292.210938 223.828125 291.609375 225.511719 C 291.003906 227.195312 290.359375 228.863281 289.675781 230.515625 C 288.992188 232.171875 288.265625 233.804688 287.5 235.421875 C 286.734375 237.039062 285.933594 238.636719 285.089844 240.214844 C 284.246094 241.792969 283.363281 243.347656 282.445312 244.882812 C 281.523438 246.417969 280.566406 247.925781 279.574219 249.414062 C 278.578125 250.902344 277.550781 252.363281 276.484375 253.800781 C 275.417969 255.238281 274.316406 256.648438 273.183594 258.03125 C 272.046875 259.414062 270.878906 260.765625 269.679688 262.09375 C 268.476562 263.417969 267.242188 264.714844 265.976562 265.976562 C 264.714844 267.242188 263.417969 268.476562 262.09375 269.679688 C 260.765625 270.878906 259.414062 272.046875 258.03125 273.183594 C 256.648438 274.316406 255.238281 275.417969 253.800781 276.484375 C 252.363281 277.550781 250.902344 278.578125 249.414062 279.574219 C 247.925781 280.566406 246.417969 281.523438 244.882812 282.445312 C 243.347656 283.363281 241.792969 284.246094 240.214844 285.089844 C 238.636719 285.933594 237.039062 286.734375 235.421875 287.5 C 233.804688 288.265625 232.171875 288.992188 230.515625 289.675781 C 228.863281 290.359375 227.195312 291.003906 225.511719 291.609375 C 223.828125 292.210938 222.128906 292.773438 220.417969 293.292969 C 218.707031 293.8125 216.984375 294.289062 215.246094 294.722656 C 213.511719 295.15625 211.765625 295.550781 210.011719 295.898438 C 208.257812 296.25 206.496094 296.554688 204.726562 296.816406 C 202.957031 297.082031 201.183594 297.300781 199.402344 297.476562 C 197.621094 297.652344 195.839844 297.785156 194.050781 297.871094 C 192.265625 297.960938 190.476562 298.003906 188.6875 298.003906 Z M 188.6875 298.003906 " fill-opacity="1" fill-rule="nonzero"/></g></svg>